<?xml version="1.0" standalone="no"?>
<!DOCTYPE svg PUBLIC "-//W3C//DTD SVG 20010904//EN"
 "http://www.w3.org/TR/2001/REC-SVG-20010904/DTD/svg10.dtd">
<svg version="1.0" xmlns="http://www.w3.org/2000/svg"
 width="260.000000pt" height="260.000000pt" viewBox="0 0 260.000000 260.000000"
 preserveAspectRatio="xMidYMid meet">
<metadata>
Created by potrace 1.11, written by Peter Selinger 2001-2013
</metadata>
<g transform="translate(0.000000,260.000000) scale(0.100000,-0.100000)"
fill="#000000" stroke="none">
<path d="M1443 2250 c-13 -5 -23 -12 -23 -15 0 -7 32 -1 47 8 7 4 16 0 22 -10
7 -14 3 -26 -15 -48 -13 -17 -24 -43 -24 -58 0 -16 -4 -26 -10 -22 -16 10 -12
61 6 75 8 8 20 23 26 34 10 20 10 20 -7 6 -10 -8 -26 -28 -36 -44 -16 -26 -16
-32 -2 -72 8 -24 18 -44 23 -44 4 0 10 23 12 51 4 36 12 58 30 76 l25 24 -5
-55 c-7 -82 21 -74 51 14 9 27 17 39 20 30 3 -8 8 -22 10 -30 4 -11 6 -11 6 3
1 10 -4 27 -9 37 -8 16 -8 18 5 14 8 -4 15 -1 15 5 0 6 -10 10 -22 10 -13 -1
-36 3 -51 10 -33 13 -63 13 -94 1z m92 -20 c3 -5 12 -7 20 -4 13 5 13 2 0 -22
-8 -16 -15 -39 -15 -51 0 -13 -5 -23 -11 -23 -7 0 -8 16 -3 45 5 38 4 45 -10
45 -10 0 -14 5 -11 10 8 13 22 13 30 0z"/>
<path d="M1330 2230 c0 -5 4 -10 9 -10 6 0 13 5 16 10 3 6 -1 10 -9 10 -9 0
-16 -4 -16 -10z"/>
<path d="M1655 2221 c-38 -6 -40 -8 -36 -36 6 -41 5 -65 -3 -100 -3 -16 -3
-23 0 -15 4 8 16 28 27 44 16 23 18 32 9 47 -18 29 -14 39 13 39 15 0 36 -11
50 -26 14 -16 29 -23 36 -18 9 5 10 2 6 -9 -13 -35 69 -77 89 -46 5 8 -1 10
-20 7 -20 -4 -26 -2 -22 8 3 8 1 14 -5 14 -6 0 -7 5 -4 10 4 6 12 8 18 4 7 -3
-1 6 -17 21 -16 14 -35 24 -43 21 -8 -4 -26 3 -40 14 -17 13 -21 20 -11 20 9
0 21 -7 28 -15 7 -8 17 -12 23 -8 13 8 -21 34 -42 32 -9 -1 -34 -5 -56 -8z"/>
<path d="M1300 2213 c-22 -9 -30 -25 -24 -47 5 -15 3 -18 -10 -13 -10 4 -21
-1 -28 -13 -18 -28 -30 -25 -22 5 8 32 -12 33 -52 4 -26 -19 -25 -18 4 10 36
35 59 40 64 14 3 -16 5 -16 15 3 11 18 9 20 -22 22 -25 2 -42 -5 -68 -28 -20
-17 -39 -30 -44 -29 -21 4 -33 -2 -33 -16 0 -8 -5 -15 -11 -15 -7 0 -9 10 -5
26 6 24 5 25 -30 20 -47 -8 -54 -13 -54 -38 0 -17 4 -20 29 -15 38 8 68 -31
51 -63 -14 -26 -30 -26 -37 0 -7 25 -39 26 -52 2 -5 -9 -7 -30 -4 -45 3 -16 1
-27 -6 -27 -6 0 -11 10 -11 22 0 16 -3 19 -11 11 -8 -8 -8 -17 1 -33 16 -30
40 -9 40 36 0 35 16 46 26 19 15 -38 74 0 74 48 0 37 17 42 22 6 3 -16 1 -32
-3 -35 -5 -2 -18 -19 -30 -37 l-22 -32 29 28 c30 27 51 36 39 17 -3 -5 -2 -10
4 -10 9 0 9 59 -1 76 -3 5 -2 18 3 29 6 16 8 14 10 -15 1 -24 3 -28 6 -12 4
19 6 20 19 7 18 -17 18 -30 2 -30 -18 0 -33 -84 -18 -99 8 -8 15 -7 24 6 7 10
17 14 21 10 4 -4 6 -1 3 7 -6 21 -28 26 -28 7 0 -9 -5 -16 -11 -16 -6 0 -8 7
-5 16 3 9 6 21 6 29 0 7 9 15 20 18 17 4 19 12 17 56 -2 28 0 51 5 51 4 0 8
-8 8 -18 0 -27 10 -33 34 -20 21 12 27 14 46 17 6 0 10 17 10 37 0 24 4 34 12
32 17 -6 11 -76 -8 -106 -17 -26 -7 -114 14 -118 7 -1 8 0 2 3 -12 6 -13 100
-1 107 5 4 12 25 16 47 5 29 10 38 16 28 5 -8 9 -11 9 -8 0 7 -30 69 -33 68
-1 0 -9 -3 -17 -6z m-270 -77 c0 -3 -4 -8 -10 -11 -5 -3 -10 -1 -10 4 0 6 5
11 10 11 6 0 10 -2 10 -4z m145 -16 c3 -5 1 -10 -4 -10 -6 0 -11 5 -11 10 0 6
2 10 4 10 3 0 8 -4 11 -10z"/>
<path d="M1346 2212 c-2 -4 -1 -14 5 -22 7 -13 9 -12 9 3 0 9 3 17 6 17 4 0
13 -8 20 -17 12 -17 14 -17 30 -1 10 10 14 21 10 25 -4 4 -12 1 -17 -7 -8 -11
-12 -12 -16 -2 -5 13 -39 17 -47 4z"/>
<path d="M1824 2166 c13 -12 32 -26 41 -30 9 -3 19 -15 22 -26 3 -12 11 -19
17 -17 19 6 12 31 -12 43 -12 6 -33 21 -46 33 -31 29 -51 27 -22 -3z"/>
<path d="M1346 2117 c-11 -23 -22 -46 -24 -52 -3 -5 1 -5 8 2 16 15 51 93 42
93 -4 0 -16 -19 -26 -43z"/>
<path d="M925 2125 c-22 -7 -57 -19 -78 -25 -22 -7 -60 -26 -85 -43 -26 -17
-53 -32 -60 -33 -14 -2 -117 -95 -160 -143 -20 -22 -52 -70 -100 -146 -13 -22
-31 -58 -57 -118 -9 -21 -19 -67 -22 -102 -5 -59 -3 -68 20 -98 17 -23 24 -41
20 -56 -6 -22 22 -123 40 -148 12 -16 31 -17 21 -1 -12 18 -16 156 -5 162 5 4
7 21 4 40 -3 19 -1 36 6 40 6 4 11 21 11 37 0 41 16 69 40 69 10 0 21 4 25 10
3 5 12 7 20 3 9 -3 15 1 15 10 0 9 6 22 14 29 12 12 11 20 -5 53 -11 21 -19
44 -19 51 0 38 100 212 147 256 49 47 93 79 101 74 5 -3 22 8 37 24 35 36 49
37 80 6 14 -14 27 -20 30 -15 10 15 47 11 67 -8 16 -14 18 -14 18 -1 0 22 -20
36 -55 40 -24 2 -30 7 -28 26 2 12 2 22 0 21 -1 0 -20 -6 -42 -14z"/>
<path d="M861 2058 c-28 -30 -31 -37 -25 -76 5 -33 2 -47 -11 -62 -22 -24 -41
-26 -49 -5 -3 8 -9 14 -13 13 -18 -6 -16 9 4 36 14 17 27 25 35 20 7 -4 10 -4
6 1 -4 4 -3 14 4 22 25 30 -4 23 -47 -11 -83 -68 -203 -272 -177 -298 16 -16
53 24 42 42 -7 10 -10 11 -10 3 0 -7 -4 -13 -10 -13 -16 0 21 82 54 120 16 19
27 27 23 18 -3 -10 -2 -18 3 -18 6 0 10 4 10 8 0 14 47 31 69 25 33 -8 91 55
91 101 0 19 5 47 12 61 10 23 13 24 18 9 6 -16 7 -15 12 4 10 35 -8 35 -41 0z
m-134 -155 c-4 -17 -4 -17 -12 0 -4 9 -4 25 0 35 8 16 8 16 12 0 3 -10 3 -26
0 -35z"/>
<path d="M1230 2063 c0 -18 5 -33 10 -33 13 0 13 30 0 50 -7 11 -10 7 -10 -17z"/>
<path d="M1366 2075 c-3 -8 -1 -15 4 -15 5 0 21 -17 35 -37 31 -46 32 -38 3
22 -23 48 -32 54 -42 30z"/>
<path d="M1956 2079 c7 -8 13 -23 15 -33 4 -17 5 -17 17 -4 10 13 8 18 -15 33
-18 12 -24 13 -17 4z"/>
<path d="M920 2056 c0 -8 5 -18 10 -21 6 -3 10 1 10 9 0 8 -4 18 -10 21 -5 3
-10 -1 -10 -9z"/>
<path d="M1854 2048 c0 -16 6 -28 11 -28 6 0 1 -7 -9 -15 -11 -8 -14 -15 -7
-15 18 0 61 47 61 67 -1 13 -5 11 -16 -9 -17 -33 -28 -37 -19 -7 5 14 3 19 -3
15 -6 -3 -12 0 -15 6 -2 7 -4 1 -3 -14z"/>
<path d="M2036 2013 c-14 -14 -4 -33 25 -48 33 -18 33 -26 -3 -30 -35 -4 -35
-4 -43 -22 -5 -15 -4 -16 6 -5 7 6 28 12 46 12 42 0 43 21 3 50 -16 12 -30 26
-30 32 0 6 7 5 18 -4 9 -8 24 -19 32 -23 13 -8 13 -7 1 9 -18 22 -47 37 -55
29z"/>
<path d="M1074 1978 l-29 -32 28 17 27 17 0 -33 c0 -32 -2 -33 -32 -30 l-33 4
34 -16 c41 -18 41 -18 41 0 0 9 6 12 18 9 12 -4 13 -3 4 3 -7 6 -10 17 -6 28
6 14 4 16 -6 10 -10 -6 -12 -2 -8 19 8 38 -5 40 -38 4z"/>
<path d="M1321 2003 c0 -4 4 -17 9 -28 8 -19 9 -19 9 2 1 12 -3 25 -9 28 -5 3
-10 3 -9 -2z"/>
<path d="M1966 1985 c-3 -8 -1 -15 4 -15 6 0 10 7 10 15 0 8 -2 15 -4 15 -2 0
-6 -7 -10 -15z"/>
<path d="M1370 1961 c0 -11 4 -22 9 -25 4 -3 6 6 3 19 -5 30 -12 33 -12 6z"/>
<path d="M1179 1953 c-13 -16 -12 -17 4 -4 9 7 17 15 17 17 0 8 -8 3 -21 -13z"/>
<path d="M786 1952 c-8 -13 11 -35 23 -28 16 10 14 36 -3 36 -8 0 -17 -4 -20
-8z"/>
<path d="M1901 1947 c-8 -10 -7 -14 2 -14 8 0 14 6 14 14 0 7 -1 13 -2 13 -2
0 -8 -6 -14 -13z"/>
<path d="M1490 1938 c0 -7 5 -20 10 -28 8 -12 10 -9 10 13 0 15 -4 27 -10 27
-5 0 -10 -6 -10 -12z"/>
<path d="M1973 1938 c-18 -24 -24 -38 -16 -38 4 0 13 11 20 25 12 27 11 32 -4
13z"/>
<path d="M1146 1925 c4 -8 8 -15 10 -15 2 0 4 7 4 15 0 8 -4 15 -10 15 -5 0
-7 -7 -4 -15z"/>
<path d="M2124 1932 c4 -7 2 -12 -3 -12 -6 0 -11 -4 -11 -10 0 -5 8 -10 17
-10 9 0 32 -14 50 -32 18 -17 35 -29 38 -27 2 3 -19 27 -47 54 -28 26 -48 43
-44 37z"/>
<path d="M1441 1914 c0 -11 3 -14 6 -6 3 7 2 16 -1 19 -3 4 -6 -2 -5 -13z"/>
<path d="M1910 1900 c-12 -8 -11 -10 8 -10 12 0 22 5 22 10 0 13 -11 13 -30 0z"/>
<path d="M2040 1895 c-11 -13 -10 -14 4 -9 9 3 16 10 16 15 0 13 -6 11 -20 -6z"/>
<path d="M1112 1880 c-7 -11 -8 -19 -3 -18 5 2 17 -6 25 -17 8 -11 16 -15 16
-8 0 6 -4 15 -10 18 -5 3 -10 11 -10 18 0 8 3 8 12 -1 17 -17 26 -15 38 11 11
21 11 22 -5 2 -15 -19 -17 -19 -26 -2 -13 22 -21 22 -37 -3z"/>
<path d="M2050 1872 c-14 -9 -36 -25 -50 -36 l-25 -19 25 7 c14 4 30 8 37 10
16 3 53 37 53 48 0 12 -12 9 -40 -10z"/>
<path d="M1985 1869 c-4 -6 -5 -12 -2 -15 2 -3 7 2 10 11 7 17 1 20 -8 4z"/>
<path d="M1082 1825 c-13 -14 -28 -22 -37 -19 -16 6 -45 -12 -45 -27 0 -5 7
-9 15 -9 8 0 15 -8 15 -18 0 -11 9 -29 20 -42 13 -15 20 -18 20 -9 0 8 3 25 6
39 6 21 4 23 -7 13 -18 -18 -32 -16 -25 3 4 11 -1 18 -14 21 -27 7 -14 24 13
18 20 -4 77 33 77 50 0 11 -16 3 -38 -20z"/>
<path d="M2227 1790 c7 -53 7 -54 21 -38 7 9 5 23 -8 48 l-18 35 5 -45z"/>
<path d="M1094 1799 c-9 -10 -14 -22 -10 -26 4 -4 11 -1 17 7 7 12 9 9 8 -10
-1 -14 -1 -38 0 -55 3 -30 3 -30 16 10 8 22 14 34 14 28 1 -7 6 -13 13 -13 6
0 2 10 -10 23 -26 27 -28 37 -7 37 22 0 18 15 -4 17 -11 1 -27 -7 -37 -18z"/>
<path d="M650 1786 c22 -20 73 -31 68 -14 -3 8 -16 12 -31 10 -15 -2 -27 1
-27 7 0 6 -5 11 -12 11 -8 0 -8 -4 2 -14z"/>
<path d="M1415 1779 c-22 -4 -59 -11 -82 -14 -30 -5 -51 -18 -73 -42 -29 -32
-31 -36 -16 -52 9 -10 16 -22 16 -28 0 -12 44 -33 71 -33 15 0 19 5 14 19 -3
10 -2 26 2 36 6 17 7 17 12 2 6 -16 10 -15 41 8 19 14 61 38 93 52 31 14 57
30 57 34 0 16 -82 27 -135 18z m-31 -37 c5 -9 -22 -48 -29 -41 -2 3 -2 15 2
27 5 22 18 29 27 14z m-74 -69 c0 -7 -4 -13 -10 -13 -5 0 -10 12 -10 28 0 21
2 24 10 12 5 -8 10 -21 10 -27z"/>
<path d="M2128 1733 c-27 -7 -21 -21 7 -19 14 0 25 4 25 8 0 11 -13 15 -32 11z"/>
<path d="M690 1714 c0 -8 5 -12 10 -9 6 4 8 11 5 16 -9 14 -15 11 -15 -7z"/>
<path d="M1086 1715 c-51 -139 -63 -163 -103 -203 -27 -25 -49 -40 -56 -35 -7
4 -6 -1 2 -11 27 -32 -28 -59 -61 -29 -9 8 -24 13 -33 10 -17 -7 -20 -33 -5
-42 6 -3 10 -12 10 -20 0 -21 -37 -6 -44 18 -4 16 -8 18 -20 8 -26 -22 -30
-64 -7 -82 23 -19 18 -29 -14 -29 -13 0 -27 -10 -35 -26 -13 -24 -50 -52 -50
-38 0 3 11 19 25 36 18 21 25 41 24 66 l-1 37 -8 -37 c-8 -42 -37 -81 -53 -71
-6 4 -7 1 -2 -7 4 -7 2 -16 -5 -20 -8 -5 -18 -23 -24 -41 -9 -27 -20 -37 -57
-51 -42 -15 -48 -15 -69 -1 -15 11 -19 18 -11 26 15 15 14 27 -4 27 -22 0 -24
-61 -3 -138 7 -29 27 -60 59 -93 43 -44 81 -67 63 -37 -4 7 -3 8 5 4 18 -12 5
-22 -53 -40 -29 -9 -62 -24 -72 -32 -18 -15 -18 -15 1 -9 11 3 43 11 70 16 55
12 78 16 85 19 3 1 9 2 14 1 5 -1 13 4 19 11 6 10 7 9 3 -4 -4 -13 13 -26 77
-57 97 -48 136 -57 166 -41 36 18 23 51 -29 77 -25 13 -39 23 -32 23 7 0 13
14 13 33 1 22 3 25 6 10 3 -15 9 -20 21 -16 13 4 12 2 -3 -10 -20 -15 -20 -16
-1 -23 13 -5 21 -3 24 4 2 7 9 18 16 25 14 14 10 73 -5 83 -16 10 -9 24 12 24
15 0 19 5 15 15 -3 8 -1 15 4 15 5 0 7 7 4 15 -8 21 13 19 25 -2 10 -17 12
-17 26 1 8 10 16 24 18 30 6 19 37 -14 37 -40 0 -27 8 -30 34 -11 16 12 16 14
-11 26 -26 13 -27 14 -8 22 11 4 16 8 11 8 -5 1 -3 8 4 16 17 21 7 29 -19 15
-12 -6 -18 -16 -15 -22 5 -7 2 -8 -5 -4 -9 6 -8 13 5 27 9 10 23 19 30 19 7 0
10 8 7 20 -3 11 -12 20 -19 20 -23 0 -56 -40 -49 -58 3 -9 3 -13 -1 -9 -4 4
-14 1 -22 -5 -11 -10 -17 -9 -27 6 -8 10 -11 24 -8 32 3 8 -1 14 -11 14 -19 0
-24 -11 -29 -58 -2 -18 -9 -38 -15 -44 -7 -7 -12 -20 -12 -30 0 -10 -7 -18
-15 -18 -8 0 -20 -9 -27 -19 -9 -15 -15 -17 -25 -9 -9 7 -17 7 -27 -1 -11 -10
-16 -8 -24 6 -10 17 -12 17 -35 -5 -13 -12 -26 -19 -30 -16 -4 4 1 13 11 20
16 13 16 13 -1 14 -10 0 -16 4 -12 10 3 5 13 6 23 3 16 -7 16 -5 1 17 -9 14
-26 27 -38 30 l-22 5 21 18 c23 20 34 22 24 5 -5 -8 -2 -9 10 -5 10 4 22 7 28
7 6 0 7 7 4 16 -5 13 -4 14 7 6 20 -17 30 -2 12 17 -8 9 -27 31 -41 49 -24 30
-28 32 -44 17 -9 -8 -27 -15 -41 -15 -21 0 -20 2 11 18 19 9 39 27 45 40 5 12
17 22 25 22 19 0 60 28 60 41 0 5 -11 14 -24 19 -19 7 -22 14 -19 35 5 26 6
26 20 5 8 -11 18 -18 23 -15 5 3 13 -3 19 -12 9 -15 12 -15 20 -4 5 8 16 11
30 6 13 -4 21 -2 21 5 0 6 -4 9 -9 5 -12 -7 -41 22 -41 40 0 7 -6 15 -12 18
-7 2 -10 8 -6 12 9 10 38 -13 38 -30 0 -15 27 -28 41 -20 10 7 0 -24 -14 -42
-6 -9 -6 -13 2 -13 7 0 9 -4 6 -10 -3 -5 -11 -10 -16 -10 -6 0 -8 4 -5 8 2 4
1 13 -3 20 -9 16 -52 -23 -46 -41 3 -6 -4 -18 -15 -25 -11 -7 -20 -8 -20 -3 0
14 -41 4 -59 -13 -13 -13 -11 -17 10 -35 13 -11 26 -15 27 -10 2 5 13 9 25 8
l22 0 -22 -9 c-23 -10 -22 -44 2 -54 18 -7 39 20 31 40 -4 11 -2 15 8 11 14
-6 66 31 66 46 0 5 -4 6 -9 3 -5 -3 -12 1 -15 10 -8 21 -8 21 8 27 10 4 13 1
10 -7 -3 -7 2 -19 11 -26 13 -11 19 -9 40 10 29 27 25 42 -4 16 -14 -13 -21
-14 -27 -5 -4 7 -3 10 3 6 5 -4 23 7 38 23 16 17 23 30 17 30 -7 0 -12 4 -12
10 0 5 6 7 14 4 9 -3 20 3 28 15 15 24 48 28 48 6 0 -8 -6 -15 -14 -15 -8 0
-26 -10 -40 -22 -19 -17 -24 -29 -20 -45 4 -13 13 -23 21 -23 20 0 -16 -60
-37 -60 -12 -1 -11 -3 3 -11 14 -8 23 -7 36 5 12 11 20 13 28 5 8 -8 18 -7 34
2 15 8 19 14 11 17 -7 2 -20 -2 -30 -9 -14 -11 -15 -11 -5 1 10 11 9 17 -4 32
-9 10 -12 18 -7 18 5 0 10 10 11 23 0 12 6 35 12 50 9 23 15 27 34 21 12 -4
30 -8 39 -9 10 -1 21 -4 24 -8 12 -12 26 -8 18 5 -5 7 -3 8 5 4 7 -5 10 -14 7
-21 -5 -15 34 -54 49 -49 6 3 11 -4 12 -13 1 -10 3 -27 5 -38 2 -14 -3 -20
-17 -20 -28 0 -26 -35 2 -46 16 -6 27 -3 38 7 8 9 31 20 51 26 24 6 34 14 30
23 -3 8 0 16 7 19 8 3 4 11 -11 22 -19 15 -20 18 -7 28 13 9 14 17 5 43 -13
37 -50 43 -50 8 1 -19 1 -19 14 -2 8 11 17 14 20 8 4 -5 -1 -14 -10 -19 -10
-6 -15 -16 -11 -26 4 -9 2 -16 -3 -16 -6 0 -10 7 -10 15 0 8 -4 15 -9 15 -4 0
-7 10 -6 23 1 12 3 27 4 34 0 7 8 10 19 6 19 -6 -49 55 -82 74 -12 7 -16 12
-11 13 6 0 27 -11 48 -25 49 -34 48 -17 -2 20 -24 19 -37 35 -33 45 4 12 2 13
-9 3 -19 -19 -37 -16 -50 8 -8 15 -8 19 0 15 6 -4 11 -3 11 1 0 5 9 14 21 21
16 10 24 10 35 1 16 -13 18 -2 4 21 -8 12 -11 12 -27 -1 -10 -9 -29 -16 -43
-16 -25 0 -25 0 3 10 15 6 27 16 27 23 0 10 -7 9 -27 -2 -16 -7 -31 -14 -35
-14 -10 0 -40 59 -34 68 2 4 1 25 -4 47 -5 32 -8 36 -14 20z m59 -215 c3 -5 2
-10 -4 -10 -5 0 -13 5 -16 10 -3 6 -2 10 4 10 5 0 13 -4 16 -10z m-75 -16 c0
-2 -9 -4 -21 -4 -11 0 -18 4 -14 10 5 8 35 3 35 -6z m50 1 c7 -8 9 -15 5 -15
-4 0 -1 -8 6 -17 12 -14 12 -16 0 -8 -11 6 -13 4 -8 -8 3 -9 0 -18 -9 -21 -8
-3 -14 -12 -14 -21 0 -8 -4 -15 -10 -15 -13 0 -13 13 0 26 19 19 20 57 3 76
-14 16 -14 18 -1 18 9 0 21 -7 28 -15z m70 -11 c0 -8 12 -20 28 -28 31 -17 25
-21 -12 -6 -30 11 -53 47 -30 47 7 0 14 -6 14 -13z m-176 -29 c-4 -8 -8 -15
-10 -15 -2 0 -4 7 -4 15 0 8 4 15 10 15 5 0 7 -7 4 -15z m76 11 c0 -3 -14 -15
-32 -27 -28 -20 -44 -25 -85 -28 -7 -1 -14 -9 -14 -18 -1 -17 -2 -17 -6 0 -2
9 -9 17 -14 17 -6 0 -7 5 -3 11 4 8 9 7 15 -2 6 -11 9 -10 14 2 4 11 15 14 35
11 19 -3 39 3 57 17 30 22 33 23 33 17z m90 -26 c6 -11 8 -20 6 -20 -3 0 -10
9 -16 20 -6 11 -8 20 -6 20 3 0 10 -9 16 -20z m77 -43 c2 -23 0 -28 -7 -17
-12 18 -13 50 -2 50 4 0 8 -15 9 -33z m-347 19 c0 -3 -4 -8 -10 -11 -5 -3 -10
-1 -10 4 0 6 5 11 10 11 6 0 10 -2 10 -4z m235 -7 c11 -16 1 -19 -13 -3 -7 8
-8 14 -3 14 5 0 13 -5 16 -11z m-155 -13 c0 -3 -4 -8 -10 -11 -5 -3 -10 -1
-10 4 0 6 5 11 10 11 6 0 10 -2 10 -4z m268 -46 c14 0 15 -2 2 -10 -9 -5 -19
-5 -27 1 -7 6 -18 7 -25 3 -7 -4 -4 2 7 13 15 15 21 16 23 6 2 -7 11 -13 20
-13z m-228 -14 c0 -2 -7 -7 -16 -10 -8 -3 -12 -2 -9 4 6 10 25 14 25 6z m244
-29 c7 -7 11 -18 8 -26 -3 -9 0 -11 8 -6 10 6 12 4 7 -8 -3 -9 -2 -19 3 -22 6
-4 10 -11 10 -17 0 -21 -53 43 -56 67 -3 28 2 31 20 12z m66 -71 c-1 -19 -2
-19 -15 4 -20 35 -19 62 0 36 8 -11 15 -29 15 -40z m-490 40 c0 -3 -4 -8 -10
-11 -5 -3 -10 -1 -10 4 0 6 5 11 10 11 6 0 10 -2 10 -4z m22 -18 c-7 -7 -12
-8 -12 -2 0 14 12 26 19 19 2 -3 -1 -11 -7 -17z m-97 2 c3 -5 1 -10 -4 -10 -6
0 -11 5 -11 10 0 6 2 10 4 10 3 0 8 -4 11 -10z m505 -37 c-1 -20 -16 -30 -35
-22 -17 6 -17 8 -2 8 9 1 17 6 17 11 0 6 5 10 10 10 6 0 10 -3 10 -7z m-532
-39 c0 -13 -4 -24 -9 -24 -5 0 -9 12 -9 26 0 16 -4 23 -12 18 -7 -4 -8 -3 -4
4 11 18 34 3 34 -24z m-62 -11 c1 -10 4 -25 8 -34 4 -10 2 -16 -7 -16 -7 0
-14 10 -15 21 0 11 -6 22 -12 24 -17 6 -11 22 8 22 10 0 18 -8 18 -17z m-48
-42 c12 -10 22 -21 22 -25 0 -10 -39 17 -44 31 -7 17 -3 16 22 -6z m-42 -6
c-3 -8 0 -15 6 -15 6 0 9 -3 5 -6 -10 -11 -26 6 -20 21 3 8 7 15 10 15 3 0 3
-7 -1 -15z m34 -45 c0 -5 -12 -13 -27 -16 -16 -4 -31 -12 -35 -18 -6 -8 -8 -8
-8 0 0 15 19 30 45 37 11 2 21 5 23 6 1 0 2 -3 2 -9z m80 -17 c-16 -6 -30 -23
-30 -37 0 -4 8 -5 17 -2 10 4 14 3 9 -1 -10 -10 -56 -11 -50 -1 9 14 -13 8
-26 -7 -10 -12 -10 -16 1 -19 40 -13 42 -14 13 -15 -16 -1 -39 6 -50 14 -10 8
-14 15 -9 14 21 -4 44 13 38 29 -4 13 -3 14 5 3 7 -9 12 -10 16 -2 4 6 11 9
16 6 4 -3 13 2 20 10 7 8 20 15 29 14 13 0 14 -2 1 -6z m210 -77 c-7 -7 -13
-7 -20 0 -6 6 -3 10 10 10 13 0 16 -4 10 -10z m-200 -17 c0 -5 -4 -9 -8 -9 -5
0 -9 7 -9 15 0 8 4 12 9 9 4 -3 8 -9 8 -15z m111 -46 c-9 -15 -10 -12 -10 17
0 29 1 32 10 18 7 -12 7 -24 0 -35z m-74 23 c-1 -6 -8 -17 -15 -25 -7 -7 -11
-20 -8 -27 3 -8 0 -11 -9 -8 -12 5 -12 9 1 29 9 13 13 28 10 33 -3 5 1 9 9 9
8 0 13 -5 12 -11z m-107 -21 c-7 -8 -17 -15 -23 -15 -5 0 -2 9 8 20 21 23 35
19 15 -5z m50 15 c0 -5 -5 -10 -11 -10 -5 0 -7 5 -4 10 3 6 8 10 11 10 2 0 4
-4 4 -10z m130 -61 c30 -11 59 -28 64 -36 7 -13 10 -13 18 -2 8 11 9 11 5 -1
-6 -22 -98 -13 -105 10 -2 5 -8 10 -13 10 -6 0 -19 9 -31 20 -29 26 -9 26 62
-1z"/>
<path d="M1152 1710 c-12 -12 -22 -25 -22 -30 0 -4 -3 -17 -7 -27 -6 -16 -5
-16 10 -4 9 7 17 22 17 32 0 11 4 19 9 19 5 0 11 7 15 15 7 20 4 19 -22 -5z"/>
<path d="M1482 1704 c-11 -8 -1 -10 40 -10 37 1 54 5 51 12 -5 14 -71 13 -91
-2z"/>
<path d="M1603 1703 c-15 -5 -17 -23 -4 -23 5 0 11 7 15 15 3 8 4 15 3 14 -1
0 -8 -3 -14 -6z"/>
<path d="M2276 1678 c-16 -16 -38 -28 -49 -28 -15 0 -18 -3 -10 -11 8 -8 21
-4 49 14 43 30 64 24 89 -24 15 -28 14 -32 -6 -69 -18 -31 -20 -42 -10 -54 10
-11 8 -17 -10 -29 -20 -15 -19 -15 19 -10 34 5 43 2 54 -16 15 -24 28 -27 28
-7 0 20 -39 46 -59 39 -15 -6 -15 -5 0 13 15 17 18 49 10 111 0 6 -18 31 -38
55 l-38 43 -29 -27z"/>
<path d="M638 1688 c-18 -6 -28 -17 -28 -30 0 -19 4 -20 45 -15 47 7 64 -9 20
-18 -14 -3 -36 -7 -49 -10 -18 -4 -28 -17 -42 -55 l-18 -50 -23 22 c-29 27
-43 16 -54 -44 -4 -24 -11 -54 -15 -67 -6 -20 -4 -22 13 -17 11 4 32 2 47 -4
21 -8 30 -6 45 9 10 10 36 31 57 45 21 14 35 26 30 26 -4 0 -28 -13 -52 -30
-36 -24 -49 -28 -69 -20 -14 5 -33 7 -42 3 -17 -6 -17 -5 0 14 9 11 15 27 11
36 -6 16 11 18 34 3 18 -11 31 4 58 66 16 37 27 52 39 50 22 -4 65 25 65 43 0
16 -8 18 -52 15 -16 -1 -28 1 -28 4 0 3 12 12 28 20 31 17 20 19 -20 4z"/>
<path d="M1630 1680 c0 -6 5 -8 10 -5 6 3 13 -1 16 -9 3 -9 14 -16 23 -16 9 0
22 -5 29 -12 7 -7 12 -8 12 -2 0 18 -19 38 -37 40 -10 1 -26 5 -35 9 -11 4
-18 3 -18 -5z"/>
<path d="M1036 1639 c-22 -54 -15 -61 9 -9 10 22 16 43 13 46 -3 2 -13 -14
-22 -37z"/>
<path d="M2100 1673 c0 -6 8 -17 18 -24 16 -13 16 -13 2 6 -8 11 -16 22 -17
24 -2 2 -3 0 -3 -6z"/>
<path d="M1148 1635 c-8 -19 -14 -22 -20 -13 -4 7 -8 9 -8 3 0 -13 18 -41 22
-35 8 11 26 70 22 70 -2 0 -10 -11 -16 -25z"/>
<path d="M982 1615 c0 -16 2 -22 5 -12 2 9 2 23 0 30 -3 6 -5 -1 -5 -18z"/>
<path d="M1220 1620 c0 -5 4 -10 10 -10 5 0 16 -13 25 -30 10 -19 11 -30 5
-30 -6 0 -8 -4 -5 -10 9 -14 25 -12 25 3 0 22 -24 64 -42 76 -12 7 -18 7 -18
1z"/>
<path d="M1360 1599 c0 -5 5 -7 10 -4 6 3 10 8 10 11 0 2 -4 4 -10 4 -5 0 -10
-5 -10 -11z"/>
<path d="M956 1575 c9 -14 20 -25 25 -25 5 0 6 -7 3 -15 -9 -22 4 -18 16 5 6
11 7 20 3 19 -21 -4 -32 3 -38 21 -3 11 -11 20 -16 20 -5 0 -2 -11 7 -25z"/>
<path d="M830 1576 c-9 -11 -9 -19 0 -33 11 -17 11 -17 6 1 -4 10 -1 25 5 32
6 8 9 14 6 14 -2 0 -10 -7 -17 -14z"/>
<path d="M1217 1546 c-4 -9 -14 -16 -24 -16 -13 0 -14 -3 -5 -12 10 -10 15
-10 22 2 7 12 12 11 29 -5 30 -26 33 -15 7 18 -19 24 -24 26 -29 13z"/>
<path d="M1310 1554 c0 -4 12 -18 26 -31 15 -13 23 -30 20 -38 -3 -8 -1 -15 4
-15 23 0 9 47 -20 68 -16 13 -30 20 -30 16z"/>
<path d="M940 1543 c0 -6 8 -17 18 -24 16 -13 16 -13 2 6 -8 11 -16 22 -17 24
-2 2 -3 0 -3 -6z"/>
<path d="M1614 1536 c-3 -9 -17 -16 -29 -16 -13 0 -27 -5 -30 -10 -4 -6 -11
-8 -16 -4 -6 3 -16 -2 -24 -12 -11 -16 -10 -23 7 -46 10 -16 26 -28 34 -28 8
0 14 -4 14 -10 0 -5 10 -10 23 -10 12 0 49 -14 82 -31 66 -33 112 -34 146 -3
42 38 6 124 -58 140 -12 4 -23 11 -23 16 0 6 -6 8 -14 5 -8 -3 -17 -3 -20 1
-4 3 -14 7 -24 8 -9 1 -27 5 -39 9 -16 5 -25 3 -29 -9z"/>
<path d="M830 1520 c-20 -6 -21 -8 -5 -8 11 0 31 4 45 8 20 6 21 8 5 8 -11 0
-31 -4 -45 -8z"/>
<path d="M916 1511 c22 -21 27 -21 18 3 -3 9 -13 16 -22 16 -13 0 -12 -3 4
-19z"/>
<path d="M780 1494 c0 -14 5 -24 11 -22 6 2 10 7 10 11 -1 4 -1 14 -1 22 0 8
-4 15 -10 15 -5 0 -10 -12 -10 -26z"/>
<path d="M1290 1511 c0 -4 9 -12 20 -19 11 -7 20 -18 20 -26 0 -7 8 -20 18
-27 14 -11 15 -11 5 1 -7 8 -13 22 -13 32 0 10 -4 18 -10 18 -5 0 -10 5 -10
11 0 5 6 7 13 3 6 -4 9 -3 4 1 -9 10 -47 15 -47 6z"/>
<path d="M897 1473 c-3 -5 1 -16 8 -26 7 -10 15 -15 18 -10 3 5 -1 16 -8 26
-7 10 -15 15 -18 10z"/>
<path d="M1286 1465 c12 -8 29 -30 38 -50 9 -19 26 -40 37 -46 16 -8 10 5 -20
50 -24 34 -49 61 -59 61 -14 0 -13 -3 4 -15z"/>
<path d="M1370 1462 c-13 -14 -12 -15 2 -9 12 4 15 2 11 -9 -4 -10 0 -15 8
-14 30 5 41 0 35 -15 -3 -9 0 -15 9 -15 8 0 19 -9 25 -20 6 -11 16 -18 22 -14
6 4 -2 18 -21 36 -17 16 -31 32 -31 36 0 4 -11 14 -23 23 -20 15 -24 15 -37 1z"/>
<path d="M1432 1464 c10 -10 20 -16 22 -13 3 3 -5 11 -17 18 -21 13 -21 12 -5
-5z"/>
<path d="M1963 1433 c-15 -5 -17 -23 -4 -23 5 0 11 7 15 15 3 8 4 15 3 14 -1
0 -8 -3 -14 -6z"/>
<path d="M630 1409 c0 -5 5 -7 10 -4 6 3 10 8 10 11 0 2 -4 4 -10 4 -5 0 -10
-5 -10 -11z"/>
<path d="M1387 1370 c15 -27 45 -67 66 -87 38 -36 39 -36 19 -7 -12 17 -28 36
-36 43 -8 7 -27 33 -41 57 -35 60 -41 56 -8 -6z"/>
<path d="M1496 1405 c25 -19 40 -19 24 0 -7 8 -20 15 -28 15 -13 0 -12 -3 4
-15z"/>
<path d="M577 1385 c-14 -10 -15 -14 -3 -24 11 -9 15 -7 19 11 8 28 6 29 -16
13z"/>
<path d="M601 1360 c-5 -16 -6 -30 -1 -30 4 0 13 14 19 30 5 17 6 30 1 30 -4
0 -13 -13 -19 -30z"/>
<path d="M464 1339 c3 -17 6 -53 6 -80 0 -44 2 -49 22 -49 11 0 36 12 55 26
19 14 37 24 39 21 6 -5 -8 -19 -61 -62 -39 -30 -24 -50 29 -39 41 7 60 30 71
84 4 18 20 47 36 63 16 16 29 38 29 50 0 21 -1 21 -13 -3 -22 -43 -68 -83 -80
-71 -8 8 -24 3 -54 -15 -44 -25 -69 -29 -55 -8 4 6 30 23 57 38 28 15 40 24
28 21 -19 -5 -23 -2 -23 17 0 18 2 20 10 8 7 -10 10 -11 10 -2 0 16 -41 32
-82 32 -29 0 -30 -2 -24 -31z m64 -23 c3 -20 0 -26 -8 -21 -7 4 -16 1 -21 -6
-7 -11 -9 -10 -9 4 0 9 5 17 11 17 6 0 1 9 -12 20 l-24 20 30 -2 c25 -3 31 -8
33 -32z m76 -100 c-8 -20 -64 -52 -64 -36 0 5 7 10 15 10 8 0 22 11 32 24 20
27 27 28 17 2z"/>
<path d="M1451 1350 c14 -31 19 -36 19 -24 0 6 -7 19 -16 30 -14 18 -14 18 -3
-6z"/>
<path d="M810 1341 c0 -5 5 -13 10 -16 6 -3 10 -2 10 4 0 5 -4 13 -10 16 -5 3
-10 2 -10 -4z"/>
<path d="M1481 1334 c0 -11 3 -14 6 -6 3 7 2 16 -1 19 -3 4 -6 -2 -5 -13z"/>
<path d="M1847 1344 c-10 -11 -9 -54 2 -54 6 0 12 4 15 9 8 12 -8 54 -17 45z"/>
<path d="M1880 1340 c0 -5 5 -10 10 -10 6 0 10 5 10 10 0 6 -4 10 -10 10 -5 0
-10 -4 -10 -10z"/>
<path d="M2350 1330 c0 -12 -10 -25 -25 -32 -14 -6 -25 -15 -25 -19 0 -9 -20
-6 -38 5 -7 4 -16 5 -19 2 -3 -3 5 -9 18 -14 84 -33 81 -30 68 -54 -11 -20
-11 -22 3 -10 28 23 50 81 43 112 -7 34 -25 40 -25 10z"/>
<path d="M1080 1332 c0 -6 -3 -19 -6 -29 -6 -15 -4 -16 7 -5 25 23 32 13 25
-40 l-7 -52 21 26 c20 26 20 28 3 64 -17 36 -43 57 -43 36z"/>
<path d="M1800 1320 c-9 -6 -10 -10 -3 -10 6 0 15 5 18 10 8 12 4 12 -15 0z"/>
<path d="M1485 1290 c13 -12 17 -12 31 1 14 15 13 16 -15 15 -26 -1 -28 -3
-16 -16z"/>
<path d="M800 1290 c0 -5 5 -10 10 -10 6 0 10 5 10 10 0 6 -4 10 -10 10 -5 0
-10 -4 -10 -10z"/>
<path d="M1667 1294 c-3 -3 -2 -17 3 -30 5 -13 7 -30 4 -38 -3 -8 8 -23 28
-36 51 -36 98 -82 98 -99 0 -12 3 -11 18 2 10 10 25 17 32 17 7 0 22 7 32 17
10 9 28 21 40 27 12 6 24 17 26 25 4 11 -2 13 -27 8 -23 -5 -33 -3 -37 8 -4 8
-10 15 -15 15 -6 0 -6 -7 -1 -17 12 -22 -2 -61 -24 -70 -12 -4 -26 4 -45 28
-16 19 -29 37 -29 41 0 12 -97 108 -103 102z"/>
<path d="M1977 1293 c-12 -11 -8 -25 5 -17 6 4 25 11 42 15 l31 7 -36 1 c-20
1 -39 -2 -42 -6z"/>
<path d="M2015 1267 c-13 -10 -15 -16 -6 -21 6 -4 19 -2 28 5 13 11 17 10 29
-6 20 -27 17 -37 -8 -30 -22 6 -22 6 -4 -9 26 -21 31 -20 33 5 5 57 -31 85
-72 56z"/>
<path d="M1060 1260 c0 -5 7 -10 16 -10 8 0 12 5 9 10 -3 6 -10 10 -16 10 -5
0 -9 -4 -9 -10z"/>
<path d="M1520 1262 c0 -10 21 -32 31 -32 4 0 5 9 2 20 -5 19 -33 29 -33 12z"/>
<path d="M1600 1256 c0 -12 -5 -16 -15 -12 -8 3 -15 1 -15 -3 0 -13 25 -20 40
-11 9 6 10 12 1 26 -10 18 -10 18 -11 0z"/>
<path d="M914 1203 c-59 -67 -67 -93 -29 -93 28 0 44 25 27 42 -14 14 17 67
46 74 22 6 29 19 14 28 -5 3 -30 -20 -58 -51z m-19 -71 c-3 -3 -11 0 -18 7 -9
10 -8 11 6 5 10 -3 15 -9 12 -12z"/>
<path d="M1870 1240 c20 -13 33 -13 25 0 -3 6 -14 10 -23 10 -15 0 -15 -2 -2
-10z"/>
<path d="M1910 1240 c0 -13 28 -25 38 -16 3 4 0 11 -8 16 -20 13 -30 12 -30 0z"/>
<path d="M1510 1210 c12 -16 32 -33 45 -36 13 -3 22 -11 21 -17 -2 -7 -1 -9 1
-4 7 11 51 9 58 -3 4 -6 -5 -10 -19 -10 -14 0 -26 -4 -26 -9 0 -20 35 -35 84
-36 29 -1 58 -5 64 -9 7 -4 22 -4 34 -1 20 7 19 9 -16 41 -20 19 -47 39 -59
45 -12 6 -4 -5 18 -25 22 -19 43 -35 48 -36 4 0 7 -4 7 -10 0 -15 -30 -12 -36
4 -8 21 -43 27 -53 9 -5 -10 -15 -13 -30 -8 -24 7 -29 25 -6 25 40 0 -1 41
-60 61 -22 7 -49 21 -61 31 -31 27 -38 22 -14 -12z"/>
<path d="M1771 1238 c2 -2 16 -14 32 -27 31 -28 36 -24 8 7 -10 12 -24 22 -31
22 -7 0 -11 -1 -9 -2z"/>
<path d="M1984 1205 c-10 -8 -14 -15 -8 -15 6 0 17 7 24 15 16 19 9 19 -16 0z"/>
<path d="M2200 1185 c0 -9 5 -15 11 -13 6 2 11 8 11 13 0 5 -5 11 -11 13 -6 2
-11 -4 -11 -13z"/>
<path d="M1008 1183 c-11 -3 -18 -14 -18 -29 0 -33 16 -30 35 6 16 30 15 31
-17 23z"/>
<path d="M1174 1169 c-3 -6 0 -16 7 -21 11 -8 10 -9 -4 -4 -21 7 -71 -23 -74
-44 -2 -8 6 -21 17 -28 18 -11 20 -9 21 20 2 32 2 32 6 4 4 -28 5 -28 19 -7 8
12 12 26 8 33 -4 7 -3 8 4 4 6 -4 20 -1 31 5 15 10 17 16 8 31 -13 20 -32 24
-43 7z"/>
<path d="M1181 1053 c0 -11 3 -13 6 -5 2 6 9 12 15 12 6 0 8 -7 4 -15 -3 -10
1 -16 12 -16 9 -1 24 -3 32 -3 29 -3 100 -29 100 -37 0 -5 -7 -6 -16 -2 -13 5
-15 2 -9 -15 4 -13 2 -22 -4 -22 -6 0 -11 4 -11 9 0 12 -114 43 -134 35 -23
-9 -20 -28 10 -74 30 -44 46 -52 107 -50 67 3 82 1 72 -9 -13 -12 -108 -24
-102 -13 3 4 -4 9 -15 9 -19 2 -19 1 -3 -18 19 -20 102 -29 90 -9 -4 7 7 10
33 9 28 -2 45 3 61 18 l23 21 -86 7 c-53 5 -84 11 -83 18 2 11 -3 12 -49 15
-12 1 -25 9 -28 18 -9 24 0 29 19 10 20 -20 31 -20 39 -1 5 13 9 13 28 3 13
-7 33 -22 46 -33 20 -17 24 -17 32 -5 7 11 3 18 -17 26 l-26 11 22 22 c17 17
26 19 41 11 10 -5 22 -15 25 -20 3 -6 12 -10 18 -10 7 0 0 11 -15 24 -29 24
-82 47 -155 66 -23 6 -45 15 -48 20 -10 17 -35 11 -34 -7z m79 -93 c0 -5 -4
-10 -9 -10 -6 0 -13 5 -16 10 -3 6 1 10 9 10 9 0 16 -4 16 -10z m145 -100 c3
-5 1 -10 -4 -10 -6 0 -11 5 -11 10 0 6 2 10 4 10 3 0 8 -4 11 -10z"/>
<path d="M1280 1050 c20 -13 33 -13 25 0 -3 6 -14 10 -23 10 -15 0 -15 -2 -2
-10z"/>
<path d="M1375 1018 c69 -39 147 -100 138 -109 -4 -4 -28 -9 -53 -12 l-45 -4
52 -1 c78 -3 82 22 10 73 -66 47 -92 62 -118 69 -14 4 -8 -3 16 -16z"/>
<path d="M1263 995 c11 -7 26 -11 34 -8 12 5 12 7 1 14 -7 5 -22 9 -33 9 -19
-1 -19 -1 -2 -15z"/>
<path d="M1375 959 c-10 -15 3 -25 16 -12 7 7 7 13 1 17 -6 3 -14 1 -17 -5z"/>
<path d="M1668 924 c-27 -13 -48 -26 -48 -28 0 -2 9 -6 21 -9 16 -4 19 -2 15
10 -5 13 -4 14 8 4 8 -7 20 -10 25 -6 7 3 8 0 5 -9 -4 -10 -1 -16 9 -16 20 0
31 16 17 25 -18 11 -11 23 20 34 17 5 30 12 30 15 0 14 -60 3 -102 -20z"/>
<path d="M972 926 c-12 -6 -20 -17 -17 -23 2 -7 -3 -13 -12 -13 -12 0 -14 -3
-6 -11 13 -13 93 11 93 28 0 15 -16 17 -25 3 -3 -5 -11 -10 -17 -10 -6 0 -6 6
2 15 17 20 11 24 -18 11z"/>
<path d="M1450 930 c-8 -5 -11 -12 -7 -16 4 -4 13 -2 19 4 15 15 7 24 -12 12z"/>
<path d="M1782 928 c-7 -7 -12 -9 -12 -5 0 4 -8 3 -19 -2 -22 -12 -25 -57 -4
-66 10 -3 13 -1 10 9 -7 18 26 48 44 41 8 -3 23 1 34 9 17 13 18 15 3 16 -9 0
-22 2 -30 5 -7 3 -19 0 -26 -7z"/>
<path d="M1398 923 c7 -3 16 -2 19 1 4 3 -2 6 -13 5 -11 0 -14 -3 -6 -6z"/>
<path d="M1897 913 c-4 -3 -1 -13 6 -22 11 -14 10 -14 -6 -2 -16 12 -20 11
-37 -7 -24 -25 -26 -36 -5 -28 8 3 14 2 14 -2 -5 -29 5 -41 40 -50 33 -8 39
-7 34 5 -5 12 -1 14 18 9 13 -3 19 -3 12 0 -7 3 -9 12 -6 20 3 8 1 14 -5 14
-5 0 -12 -6 -15 -13 -3 -8 -20 -14 -37 -15 -30 -1 -31 0 -14 14 14 10 15 13 3
9 -10 -4 -16 0 -16 9 0 8 3 14 6 13 3 0 16 3 29 7 13 4 28 3 35 -3 8 -6 18 -6
27 -1 23 15 30 12 30 -11 0 -11 4 -18 9 -15 16 11 40 -5 34 -22 -5 -13 -2 -12
19 4 21 15 23 22 14 36 -13 22 -26 23 -26 3 0 -8 -5 -15 -11 -15 -6 0 -9 7 -6
14 4 11 1 13 -10 9 -11 -4 -14 -2 -9 5 4 7 17 12 29 13 19 0 18 2 -6 11 -22 8
-33 6 -53 -7 -14 -9 -29 -14 -32 -10 -4 3 0 10 8 15 13 8 12 10 -2 10 -9 0
-20 -4 -23 -10 -9 -15 -25 -12 -25 5 0 16 -12 20 -23 8z"/>
<path d="M1790 891 c13 -9 13 -11 -2 -11 -20 0 -24 -15 -7 -26 6 -3 15 0 20 7
6 10 9 11 9 2 0 -7 5 -13 10 -13 6 0 10 9 10 20 0 11 -4 20 -9 20 -5 0 -18 3
-28 6 -15 5 -15 4 -3 -5z"/>
<path d="M1017 876 c-15 -7 -25 -15 -22 -18 8 -8 65 14 65 24 0 10 -9 9 -43
-6z"/>
<path d="M2090 880 c0 -5 7 -10 16 -10 8 0 13 -4 9 -9 -8 -14 15 -25 27 -13 6
6 4 15 -7 26 -18 18 -45 22 -45 6z"/>
<path d="M1487 869 c7 -7 15 -10 18 -7 3 3 -2 9 -12 12 -14 6 -15 5 -6 -5z"/>
<path d="M1581 871 c-8 -5 -9 -11 -3 -15 14 -8 43 4 36 15 -7 11 -15 11 -33 0z"/>
<path d="M1035 840 c-7 -23 9 -56 35 -70 45 -24 121 1 87 28 -10 9 -16 9 -24
1 -8 -8 -20 -8 -43 -1 -22 8 -29 8 -24 0 4 -6 3 -8 -3 -5 -6 4 -13 16 -16 27
-4 17 -2 20 16 16 12 -3 16 -3 9 0 -6 3 -10 10 -6 15 3 5 -2 9 -10 9 -8 0 -17
-9 -21 -20z"/>
<path d="M1515 850 c-3 -5 -1 -10 4 -10 6 0 11 5 11 10 0 6 -2 10 -4 10 -3 0
-8 -4 -11 -10z"/>
<path d="M413 838 c-52 -14 -38 -28 30 -29 34 -1 90 -2 124 -3 33 0 59 -5 56
-9 -3 -5 3 -7 13 -5 11 2 24 -2 29 -9 6 -7 28 -15 50 -19 50 -7 62 -14 43 -25
-8 -4 -32 -4 -54 1 -125 28 -174 34 -290 34 -89 0 -106 -3 -155 -27 -57 -27
-102 -75 -90 -95 9 -16 210 -92 248 -95 18 -1 33 -5 33 -8 0 -7 77 -13 159
-10 72 2 99 15 79 38 -17 21 -76 43 -95 36 -11 -4 -14 -3 -9 5 5 8 2 10 -9 6
-18 -7 -65 14 -65 29 0 6 8 3 18 -6 10 -10 25 -17 33 -17 8 0 2 9 -13 21 -43
31 -34 38 30 22 31 -8 65 -15 74 -16 9 -1 15 -4 13 -8 -6 -9 44 -31 55 -24 5
3 33 -7 62 -23 29 -16 64 -28 78 -27 14 1 40 2 58 3 18 1 31 6 28 11 -3 5 2 8
12 7 21 -1 23 26 2 31 -13 4 -13 3 0 -6 13 -9 13 -11 -2 -11 -10 0 -18 7 -18
15 0 8 -6 12 -14 9 -13 -5 -31 24 -21 34 3 3 5 0 5 -6 0 -7 5 -12 11 -12 6 0
9 7 5 15 -9 24 11 66 28 59 9 -3 15 -9 14 -12 -3 -26 5 -42 20 -42 10 0 23 -5
28 -10 6 -6 35 -11 65 -12 55 -2 69 3 196 72 l53 28 -29 10 c-38 13 -102 -4
-94 -25 4 -9 0 -11 -12 -7 -14 6 -16 3 -11 -17 3 -13 3 -18 0 -11 -3 6 -10 12
-15 12 -6 0 -8 -3 -6 -7 3 -5 -13 -9 -34 -11 -28 -2 -58 7 -104 29 -47 23 -72
29 -93 24 -29 -6 -109 -69 -105 -83 2 -8 -73 -4 -97 5 -8 3 -19 7 -25 8 -5 2
-28 7 -50 13 -116 30 -249 26 -258 -8 -5 -21 14 -33 40 -23 11 4 14 3 9 -5 -4
-7 -1 -12 8 -12 9 0 31 -9 51 -20 19 -11 36 -19 38 -18 7 4 47 -15 47 -23 0
-13 -18 -11 -22 2 -3 9 -9 9 -24 1 -21 -11 -73 -4 -110 16 -12 6 -24 9 -27 5
-4 -3 -13 -1 -20 5 -8 7 -17 9 -20 5 -4 -3 -7 -2 -7 4 0 5 -12 8 -27 6 -16 -3
-45 3 -66 12 -33 13 -36 18 -27 35 6 11 15 20 20 20 6 0 9 3 9 8 -3 19 2 32
12 32 8 0 7 -6 -2 -17 -13 -15 -12 -15 10 -2 13 8 33 20 45 26 29 18 180 16
249 -2 32 -8 88 -18 125 -21 59 -6 70 -4 92 15 25 21 25 21 5 36 -20 16 -176
67 -192 64 -4 -2 -30 1 -58 5 -93 13 -110 13 -142 4z m267 -269 c0 -6 -4 -7
-10 -4 -5 3 -10 11 -10 16 0 6 5 7 10 4 6 -3 10 -11 10 -16z"/>
<path d="M1670 841 c0 -5 16 -12 36 -15 19 -4 42 -10 50 -13 8 -3 14 -1 14 4
0 6 -17 15 -39 21 -46 14 -61 15 -61 3z"/>
<path d="M1515 820 c-3 -5 3 -10 14 -10 12 0 21 -5 21 -11 0 -7 -10 -9 -25 -7
-16 4 -29 0 -34 -10 -6 -10 -10 -11 -15 -3 -10 15 -48 14 -72 -3 -17 -13 -18
-16 -3 -31 8 -8 25 -17 38 -20 13 -2 29 -9 37 -16 8 -6 22 -8 31 -4 21 8 80
18 106 17 20 -1 23 14 5 21 -10 4 -10 6 -1 6 6 1 15 -3 18 -9 3 -5 17 -10 31
-10 14 0 23 4 20 9 -3 4 6 6 19 3 15 -2 25 0 25 7 0 6 -3 11 -7 12 -44 4 -68
10 -77 20 -6 7 -6 9 -1 6 6 -3 31 -8 55 -11 42 -6 44 -5 25 9 -11 9 -30 14
-42 12 -16 -3 -20 0 -15 11 4 11 1 14 -11 9 -9 -3 -19 -2 -22 3 -8 13 -112 13
-120 0z m-58 -72 c-3 -7 -5 -2 -5 12 0 14 2 19 5 13 2 -7 2 -19 0 -25z m94
-15 c13 -16 12 -17 -3 -4 -17 13 -22 21 -14 21 2 0 10 -8 17 -17z"/>
<path d="M2010 821 c-18 -5 -21 -9 -11 -15 8 -5 19 -2 29 8 9 9 14 16 12 15
-3 -1 -16 -4 -30 -8z"/>
<path d="M2177 824 c-4 -4 -25 -7 -46 -6 -45 2 -63 -13 -29 -24 39 -12 112
-13 127 -1 12 10 14 9 8 -5 -5 -15 -1 -18 23 -19 17 -1 35 -3 40 -4 6 -1 13
-3 18 -4 4 -2 -2 -6 -13 -11 -18 -8 -18 -9 -2 -9 17 -1 47 20 47 33 0 3 -19 6
-42 7 -35 1 -39 2 -18 8 23 7 21 9 -20 19 -25 6 -54 13 -65 17 -11 3 -24 3
-28 -1z"/>
<path d="M2057 794 c-8 -8 3 -34 15 -34 7 0 6 5 -1 13 -6 8 -8 17 -4 20 3 4 4
7 1 7 -2 0 -7 -3 -11 -6z"/>
<path d="M1809 733 c-13 -16 -12 -17 4 -4 16 13 21 21 13 21 -2 0 -10 -8 -17
-17z"/>
<path d="M2360 741 c0 -15 40 -33 57 -26 20 7 7 20 -29 29 -16 4 -28 2 -28 -3z"/>
<path d="M1690 721 l-25 -7 24 -7 c14 -3 31 -1 38 5 7 5 19 8 28 5 8 -4 17 -2
20 3 7 11 -47 12 -85 1z"/>
<path d="M1430 689 c-29 -21 -17 -25 19 -5 13 7 20 16 15 19 -5 3 -21 -3 -34
-14z"/>
<path d="M2250 705 c0 -2 18 -13 40 -24 22 -10 40 -16 40 -12 0 4 -16 15 -35
24 -38 18 -45 20 -45 12z"/>
<path d="M1263 693 c-13 -2 -23 -8 -23 -12 0 -4 10 -16 23 -27 l22 -19 -19 23
c-26 30 -6 28 23 -2 17 -18 19 -25 9 -30 -7 -3 -4 -4 7 -3 14 2 19 9 18 25 -2
19 2 22 34 22 44 0 37 12 -9 15 -18 1 -40 4 -48 7 -8 3 -25 3 -37 1z"/>
<path d="M1725 690 c-3 -5 1 -10 9 -10 8 0 18 5 21 10 3 6 -1 10 -9 10 -8 0
-18 -4 -21 -10z"/>
<path d="M1815 680 c-3 -5 -2 -10 4 -10 5 0 13 5 16 10 3 6 2 10 -4 10 -5 0
-13 -4 -16 -10z"/>
<path d="M1501 656 c-91 -36 -169 -128 -122 -144 8 -3 11 0 7 7 -4 6 -2 11 3
11 6 0 11 -5 11 -10 0 -15 57 -47 99 -55 20 -4 44 -14 54 -22 21 -20 35 -10
17 12 -21 25 -3 17 46 -20 35 -27 49 -33 59 -25 10 8 22 7 45 -5 18 -9 29 -19
26 -22 -3 -3 -18 2 -33 12 l-28 18 20 -23 c11 -12 40 -33 65 -45 25 -13 64
-42 87 -64 l42 -40 47 37 47 37 -37 9 c-21 4 -54 24 -74 42 -20 19 -44 36 -53
39 -11 4 -15 13 -12 29 3 13 -1 27 -7 31 -9 5 -10 1 -5 -14 5 -17 3 -20 -12
-15 -13 4 -15 3 -4 -4 9 -7 10 -12 2 -16 -6 -4 -14 -1 -17 8 -3 8 -13 12 -22
9 -9 -3 -5 4 11 14 15 11 24 23 20 26 -3 4 2 7 12 7 13 0 15 3 7 13 -5 6 -13
27 -17 45 -4 18 -14 36 -23 40 -21 7 -42 28 -42 40 0 5 -33 19 -72 31 -40 13
-77 24 -83 26 -5 1 -34 -7 -64 -19z m135 -41 c-23 -18 -36 -19 -36 -4 0 5 4 8
9 4 5 -3 12 -1 16 5 3 5 12 10 18 10 7 0 3 -7 -7 -15z m-196 -85 c-19 -13 -30
-13 -30 0 0 6 10 10 23 10 18 0 19 -2 7 -10z m304 -6 c9 -3 16 -11 16 -17 0
-8 -3 -8 -11 0 -6 6 -18 9 -27 6 -10 -4 -13 -2 -8 5 8 14 9 14 30 6z m-74 -19
c-7 -9 -15 -13 -19 -10 -3 3 1 10 9 15 21 14 24 12 10 -5z"/>
<path d="M2235 669 c-11 -16 -1 -19 13 -3 7 8 8 14 3 14 -5 0 -13 -5 -16 -11z"/>
<path d="M2348 673 c7 -3 16 -2 19 1 4 3 -2 6 -13 5 -11 0 -14 -3 -6 -6z"/>
<path d="M1383 640 c-13 -5 -23 -14 -23 -20 0 -5 -5 -10 -11 -10 -22 0 -58
-37 -48 -47 8 -8 7 -13 0 -17 -19 -12 -13 -27 7 -17 9 5 25 12 35 15 10 3 15
11 12 17 -4 6 7 28 24 50 18 21 31 39 29 38 -2 0 -13 -4 -25 -9z"/>
<path d="M2165 630 c-3 -5 -1 -10 4 -10 6 0 11 5 11 10 0 6 -2 10 -4 10 -3 0
-8 -4 -11 -10z"/>
<path d="M1090 606 c0 -2 9 -6 20 -9 11 -3 18 -1 14 4 -5 9 -34 13 -34 5z"/>
<path d="M1159 589 c27 -22 49 -26 32 -5 -6 8 -22 16 -34 19 -22 6 -22 6 2
-14z"/>
<path d="M1055 565 c-3 -8 -7 -21 -9 -29 -4 -13 -55 -14 -76 -1 -5 3 -11 1
-15 -5 -9 -15 44 -24 84 -14 23 6 37 16 39 28 3 13 0 16 -9 11 -7 -5 -10 -4
-6 2 4 6 30 9 59 7 40 -3 47 -1 28 5 -42 15 -90 13 -95 -4z"/>
<path d="M1312 514 c-7 -8 -8 -14 -3 -14 10 0 25 19 20 25 -2 1 -10 -3 -17
-11z"/>
<path d="M955 500 c3 -5 8 -10 11 -10 2 0 4 5 4 10 0 6 -5 10 -11 10 -5 0 -7
-4 -4 -10z"/>
<path d="M1180 490 c0 -5 5 -10 11 -10 5 0 7 5 4 10 -3 6 -8 10 -11 10 -2 0
-4 -4 -4 -10z"/>
<path d="M1086 479 c7 -12 55 -11 74 1 11 7 1 9 -32 8 -26 0 -45 -4 -42 -9z"/>
<path d="M1268 473 c7 -3 16 -2 19 1 4 3 -2 6 -13 5 -11 0 -14 -3 -6 -6z"/>
<path d="M2120 461 c0 -6 4 -13 10 -16 6 -3 7 1 4 9 -7 18 -14 21 -14 7z"/>
<path d="M1187 443 c3 -8 -2 -13 -16 -13 -14 0 -21 -6 -21 -19 0 -11 -5 -23
-11 -26 -6 -5 -4 -12 8 -20 17 -13 17 -14 -1 -28 -15 -11 -17 -17 -7 -35 6
-12 16 -22 21 -22 6 0 10 -6 10 -13 0 -8 10 -13 23 -13 14 1 21 -4 19 -13 -2
-8 3 -11 13 -8 8 4 15 2 15 -3 0 -5 7 -7 15 -4 9 4 15 0 15 -7 0 -8 8 1 17 19
8 18 18 30 21 27 3 -3 0 -11 -6 -17 -20 -20 -14 -26 22 -26 19 0 39 -3 45 -6
5 -4 13 -2 16 4 5 8 11 7 21 -1 11 -9 18 -9 29 1 9 7 18 10 22 6 3 -3 1 -6 -5
-6 -7 0 -12 -4 -12 -9 0 -4 27 -9 60 -10 43 -1 60 2 60 11 0 19 -18 43 -26 35
-4 -4 -13 1 -21 11 -10 12 -16 14 -19 5 -8 -19 -42 -16 -47 5 -4 16 -5 16 -6
0 -1 -11 -6 -15 -15 -12 -8 3 -12 12 -9 20 4 10 0 12 -11 8 -10 -4 -20 -19
-23 -35 -3 -16 -9 -26 -14 -23 -5 3 -7 9 -5 13 3 4 1 13 -5 21 -7 12 -9 12 -9
1 0 -11 -3 -11 -15 -1 -15 12 -11 35 5 25 5 -3 12 -1 15 5 4 6 3 10 -2 9 -27
-5 -34 2 -19 17 9 8 16 20 16 25 0 6 5 7 12 3 7 -5 8 -3 3 6 -6 10 -11 9 -21
-5 -12 -16 -14 -16 -29 -1 -22 22 -28 20 -20 -6 4 -16 4 -19 -3 -9 -11 15 -36
6 -27 -10 10 -15 -8 -10 -35 11 -23 18 -26 18 -44 2 -18 -16 -18 -16 -11 8 4
14 13 28 19 32 6 4 7 8 2 8 -6 0 -1 7 10 15 11 8 14 15 7 15 -7 0 -13 5 -13
11 0 7 9 9 21 6 19 -5 20 -4 5 12 -19 21 -46 24 -39 4z m-7 -53 c0 -5 -5 -10
-11 -10 -5 0 -7 5 -4 10 3 6 8 10 11 10 2 0 4 -4 4 -10z m65 -120 c4 -6 10 -8
15 -5 5 3 11 1 15 -5 10 -16 -25 -12 -41 5 -9 8 -11 15 -5 15 5 0 13 -5 16
-10z m89 -28 c3 -5 -1 -9 -9 -9 -8 0 -12 4 -9 9 3 4 7 8 9 8 2 0 6 -4 9 -8z
m176 -2 c0 -5 -5 -10 -11 -10 -5 0 -7 5 -4 10 3 6 8 10 11 10 2 0 4 -4 4 -10z"/>
<path d="M1288 413 c6 -2 18 -2 25 0 6 3 1 5 -13 5 -14 0 -19 -2 -12 -5z"/>
<path d="M1334 409 c-3 -6 -22 -9 -40 -7 -40 5 -43 1 -10 -12 24 -9 76 6 76
23 0 11 -18 8 -26 -4z"/>
<path d="M995 400 c-3 -5 -1 -10 4 -10 6 0 11 5 11 10 0 6 -2 10 -4 10 -3 0
-8 -4 -11 -10z"/>
<path d="M904 371 c-9 -10 -3 -18 22 -30 14 -6 30 -9 35 -6 5 4 9 2 9 -3 0
-11 59 -34 69 -27 9 5 2 64 -8 66 -19 4 -123 4 -127 0z"/>
<path d="M1227 353 c-4 -6 0 -14 9 -17 18 -7 34 0 34 16 0 7 -5 7 -14 -1 -11
-9 -15 -9 -18 1 -3 8 -6 9 -11 1z"/>
<path d="M1391 344 c0 -11 3 -14 6 -6 3 7 2 16 -1 19 -3 4 -6 -2 -5 -13z"/>
<path d="M1567 331 c12 -10 19 -22 15 -25 -3 -4 1 -4 11 0 25 9 21 -11 -5 -23
-22 -10 -22 -11 4 -9 16 0 28 5 28 10 0 5 7 3 15 -4 8 -7 15 -8 15 -3 0 5 -20
24 -44 41 -47 34 -75 43 -39 13z"/>
<path d="M1608 243 c6 -2 18 -2 25 0 6 3 1 5 -13 5 -14 0 -19 -2 -12 -5z"/>
<path d="M1575 220 c-3 -5 -1 -10 4 -10 6 0 11 5 11 10 0 6 -2 10 -4 10 -3 0
-8 -4 -11 -10z"/>
<path d="M1640 216 c0 -13 -5 -16 -16 -12 -12 5 -15 2 -10 -10 3 -8 6 -18 6
-20 0 -2 5 -4 11 -4 5 0 8 4 4 9 -3 6 3 14 12 20 14 8 16 12 6 22 -11 11 -13
9 -13 -5z"/>
<path d="M1300 196 c0 -2 7 -7 16 -10 8 -3 12 -2 9 4 -6 10 -25 14 -25 6z"/>
<path d="M1352 191 c4 -15 11 -20 67 -45 37 -17 54 -21 33 -7 -10 6 -9 10 7
14 12 3 21 0 21 -6 0 -8 3 -9 8 -2 4 6 25 15 46 20 22 6 41 16 44 22 2 9 -6 9
-32 -2 -20 -9 -66 -16 -103 -16 -54 -1 -69 2 -81 17 -8 11 -12 13 -10 5z"/>
<path d="M1548 147 c-21 -6 -38 -14 -38 -18 0 -4 17 -3 38 2 20 5 40 9 45 9 4
0 7 5 7 10 0 11 -1 11 -52 -3z"/>
<path d="M1478 123 c7 -3 16 -2 19 1 4 3 -2 6 -13 5 -11 0 -14 -3 -6 -6z"/>
</g>
</svg>
