<?xml version="1.0" encoding="utf-8"?>
<!-- Generator: Adobe Illustrator 23.1.1, SVG Export Plug-In . SVG Version: 6.00 Build 0)  -->
<svg version="1.1" id="Layer_1" xmlns="http://www.w3.org/2000/svg" xmlns:xlink="http://www.w3.org/1999/xlink" x="0px" y="0px"
	 viewBox="0 0 30 30" style="enable-background:new 0 0 30 30;" xml:space="preserve">
<style type="text/css">
	.st0{fill:#E1F5F9;enable-background:new    ;}
	.st1{fill:#FFFFFF;}
</style>
<rect class="st0" width="30" height="30"/>
<g>
	<rect x="1" class="st1" width="1" height="30"/>
	<rect x="3" class="st1" width="1" height="30"/>
	<rect x="5" class="st1" width="1" height="30"/>
	<rect x="7" class="st1" width="1" height="30"/>
	<rect x="9" class="st1" width="1" height="30"/>
	<rect x="11" class="st1" width="1" height="30"/>
	<rect x="13" class="st1" width="1" height="30"/>
	<rect x="15" class="st1" width="1" height="30"/>
	<rect x="17" class="st1" width="1" height="30"/>
	<rect x="19" class="st1" width="1" height="30"/>
	<rect x="21" class="st1" width="1" height="30"/>
	<rect x="23" class="st1" width="1" height="30"/>
	<rect x="25" class="st1" width="1" height="30"/>
	<rect x="27" class="st1" width="1" height="30"/>
	<rect x="29" class="st1" width="1" height="30"/>
	<rect y="29" class="st1" width="30" height="1"/>
	<rect y="27" class="st1" width="30" height="1"/>
	<rect y="25" class="st1" width="30" height="1"/>
	<rect y="23" class="st1" width="30" height="1"/>
	<rect y="21" class="st1" width="30" height="1"/>
	<rect y="19" class="st1" width="30" height="1"/>
	<rect y="17" class="st1" width="30" height="1"/>
	<rect y="15" class="st1" width="30" height="1"/>
	<rect y="13" class="st1" width="30" height="1"/>
	<rect y="11" class="st1" width="30" height="1"/>
	<rect y="9" class="st1" width="30" height="1"/>
	<rect y="7" class="st1" width="30" height="1"/>
	<rect y="5" class="st1" width="30" height="1"/>
	<rect y="3" class="st1" width="30" height="1"/>
	<rect y="1" class="st1" width="30" height="1"/>
</g>
</svg>
